<svg width="500" height="500" viewBox="0 0 500 500" fill="none" xmlns="http://www.w3.org/2000/svg">
<path d="M402.996 71.3711C403.987 72.2386 404.979 73.1061 406 74C406.919 74.7953 407.838 75.5907 408.785 76.4101C413.289 80.3706 417.453 84.4157 421.313 89.0078C422.426 90.3223 423.572 91.6102 424.75 92.8672C459.947 130.557 478.712 184.315 483 235C483.664 235.219 484.328 235.438 485.012 235.664C491.787 238.097 495.698 240.395 499 247C499.74 254.551 496.575 259.188 492.004 264.805C490.861 266.165 489.714 267.522 488.563 268.875C483.659 274.725 478.908 280.654 474.313 286.75C469.957 292.516 465.468 298.115 460.755 303.593C458.116 306.663 455.581 309.782 453.125 313C446.626 321.458 446.626 321.458 442 323C437.491 323.37 435.012 323.496 430.938 321.5C423.342 315.036 417.537 306.681 411.435 298.842C409.151 295.91 406.858 292.986 404.563 290.062C404.115 289.492 403.667 288.921 403.205 288.333C399.745 283.931 396.252 279.556 392.75 275.187C391.275 273.345 389.801 271.503 388.328 269.66C387.127 268.159 385.925 266.659 384.723 265.16C384.092 264.365 383.462 263.569 382.813 262.75C382.283 262.085 381.753 261.42 381.207 260.734C378.532 256.89 378.277 252.513 379 248C380.971 243.569 383.63 239.322 388 237C389.661 236.641 391.328 236.305 393 236C388.932 207.757 380.634 181.201 362 159C361.065 157.852 360.13 156.703 359.195 155.555C333.409 124.286 297.834 105.673 257.539 101.515C218.495 97.976 181.181 110.216 151 135C147.568 137.905 144.252 140.894 141 144C140.415 144.534 139.83 145.067 139.227 145.617C129.449 154.844 121.543 166.341 115 178C114.669 178.589 114.338 179.179 113.997 179.786C104.942 196.172 98.5233 214.562 96.875 233.25C96.7916 234.182 96.7081 235.115 96.6221 236.075C93.2369 275.741 105.777 315.083 131.363 345.627C158.261 376.972 193.755 394.22 234.744 397.499C274.836 400.213 311.166 388.16 341.566 361.957C347.679 356.549 352.948 350.84 358.008 344.418C362.624 338.816 367.402 334.545 374.832 333.664C375.816 333.651 376.799 333.638 377.813 333.625C378.788 333.597 379.764 333.568 380.77 333.539C388.276 334.61 394.019 339.271 399.813 343.875C404.516 347.556 409.232 351.197 414.082 354.684C414.923 355.29 415.765 355.897 416.632 356.522C418.246 357.681 419.866 358.834 421.491 359.978C428.165 364.793 435.412 370.528 437 379C437.933 390.751 431.29 398.44 424 407C415.637 416.513 407.048 425.276 397 433C395.291 434.457 393.583 435.916 391.875 437.375C372.254 453.326 348.776 465.612 325 474C324.229 474.274 323.458 474.548 322.664 474.83C313.377 478.074 303.975 480.609 294.375 482.75C293.494 482.949 292.613 483.147 291.706 483.352C275.72 486.747 259.854 487.407 243.563 487.375C242.551 487.375 241.54 487.375 240.499 487.374C224.662 487.341 209.499 486.515 194 483C193.178 482.823 192.356 482.647 191.509 482.465C163.31 476.287 135.673 464.527 112 448C110.858 447.226 109.716 446.453 108.574 445.68C86.348 430.435 66.4964 411.02 51 389C50.5643 388.393 50.1286 387.786 49.6797 387.161C21.4507 347.664 6.57165 299.556 6.68437 251.148C6.68752 248.333 6.664 245.52 6.63872 242.705C6.58171 226.415 8.28044 210.329 12.25 194.5C12.4613 193.645 12.6725 192.79 12.8902 191.909C26.2329 139.511 57.9929 89.9745 102 58C103.044 57.2343 104.088 56.4686 105.164 55.6797C138.366 32.0345 176.566 17.789 217 13C217.723 12.9057 218.446 12.8115 219.19 12.7143C285.924 4.84179 352.613 27.6768 402.996 71.3711Z" fill="white"/>
<path d="M258.759 164.49C273.608 177.764 282.853 193.864 284.203 214.035C284.481 232.002 279.245 248.669 267 262C266.334 262.77 265.667 263.539 264.98 264.332C252.548 277.872 235.218 283.917 217.243 284.941C199.067 285.42 182.433 277.679 169.383 265.406C155.95 251.841 149.791 236.069 149.562 217.125C149.671 199.428 155.352 184.153 167.75 171.211C191.883 147.497 231.547 141.439 258.759 164.49ZM176 180C175.425 180.565 174.85 181.129 174.258 181.711C163.408 193.235 161.308 207.541 161.625 222.648C162.376 237.778 169.862 249.669 180.629 259.965C191.133 268.98 205.159 273.465 218.965 273.277C235.138 271.799 249.411 265.252 259.938 252.687C269.893 239.299 273.737 224.201 271.57 207.734C268.864 193.903 261.594 181.543 250.332 172.969C225.906 156.708 196.761 158.942 176 180Z" fill="white"/>
<path d="M299 282C302.715 284.502 305.318 287.327 308.214 290.713C311.808 294.839 315.606 298.702 319.508 302.535C320.921 303.935 322.333 305.336 323.746 306.736C325.941 308.906 328.137 311.074 330.335 313.239C332.481 315.354 334.62 317.476 336.758 319.598C337.41 320.236 338.062 320.875 338.734 321.533C348.233 330.98 348.233 330.98 349.629 336.477C349.472 341.54 348.866 344.361 345 348C341.776 349.612 338.496 349.448 335 349C327.847 345.499 322.229 338.635 317.141 332.621C313.623 328.574 309.858 324.814 306.043 321.051C305.41 320.426 304.778 319.801 304.126 319.157C301.474 316.542 298.82 313.93 296.156 311.328C294.195 309.409 292.244 307.481 290.293 305.551C289.691 304.967 289.089 304.384 288.469 303.783C285.41 300.743 283.119 298.288 282 294C282.079 289.552 282.519 287.583 285.375 284.125C289.774 280.564 293.682 280.549 299 282Z" fill="white"/>
<path d="M176 193C178.625 192.812 178.625 192.812 181 193C182.58 198.316 181.286 202.201 179.769 207.332C177.012 216.891 176.707 227.976 181 237.133C186.483 246.62 195.154 251.694 205.352 255.129C214.269 257.258 223.981 256.266 233 255C233.99 256.98 233.99 256.98 235 259C232.02 262.887 229.179 263.844 224.547 264.684C209.997 266.491 196.393 262.71 184.457 254.184C174.707 246.099 170.396 236.507 169 224C168.726 213.744 170.208 201.688 176 193Z" fill="white"/>
<path d="M286 262C287.875 263.688 287.875 263.688 289 266C288.697 270.947 287.392 273.24 283.922 276.707C282.675 277.957 282.675 277.957 281.402 279.232C280.527 280.084 279.652 280.935 278.75 281.813C277.89 282.683 277.03 283.554 276.145 284.451C268.874 291.638 268.874 291.638 264 292C260.81 290.695 259.387 289.843 257.938 286.688C258.098 279.774 265.478 274.222 270.062 269.688C270.782 268.96 271.502 268.232 272.244 267.482C272.938 266.791 273.632 266.099 274.348 265.387C274.977 264.76 275.606 264.133 276.254 263.487C279.521 260.705 282.075 260.724 286 262Z" fill="white"/>
</svg>
