<svg width="500" height="500" viewBox="0 0 500 500" fill="none" xmlns="http://www.w3.org/2000/svg">
<path d="M409 76C418.936 85.3079 427.987 94.9899 436 106C436.754 107.021 437.508 108.042 438.285 109.094C464.452 145.645 481.243 190.995 483 236C484.196 236.062 485.392 236.124 486.625 236.187C491.47 236.789 493.614 238.533 497 242C499.547 246.287 499.849 250.125 499 255C495.609 262.737 488.647 269.445 483.312 275.934C480.385 279.506 477.546 283.137 474.75 286.812C471.051 291.661 467.249 296.401 463.359 301.098C461.608 303.253 459.894 305.419 458.203 307.621C457.723 308.244 457.243 308.866 456.748 309.508C455.82 310.715 454.897 311.926 453.981 313.142C450.661 317.451 447.093 321.724 441.945 323.848C437.596 324.361 434.104 323.966 430.191 321.738C425.012 317.63 421.041 312.189 417 307C416.58 306.461 416.159 305.923 415.726 305.368C413.663 302.713 411.62 300.044 409.586 297.367C406.847 293.778 404.02 290.265 401.187 286.75C396.75 281.219 392.347 275.664 388 270.062C387.46 269.377 386.92 268.692 386.364 267.985C378.057 257.209 378.057 257.209 377.937 250.5C379.616 244.971 381.985 240.535 386.625 237C389 236 389 236 392 236C386.131 192.96 366.83 156.698 332 130C301.047 107.31 261.405 97.7625 223.414 102.822C192.612 107.602 165.603 121.607 143 143C141.581 144.305 141.581 144.305 140.133 145.637C114.046 170.171 98.3546 205.959 96.8949 241.561C95.6865 282.18 108.889 320.554 136.707 350.574C137.464 351.375 138.22 352.175 139 353C139.746 353.811 140.493 354.622 141.262 355.457C168.434 383.977 205.515 395.428 243.91 397.129C278.228 397.853 312.243 387.008 338 364C339.309 362.853 339.309 362.853 340.644 361.684C347.32 355.769 353.582 349.911 359 342.812C362.963 337.759 367.349 333.806 374 333C384.43 332.116 391.704 337.104 399.75 343.25C400.55 343.852 401.351 344.454 402.176 345.074C403.888 346.364 405.597 347.657 407.303 348.955C410.112 351.085 412.935 353.194 415.762 355.301C417.654 356.721 419.546 358.141 421.437 359.562C422.331 360.229 423.225 360.895 424.145 361.581C431.751 367.343 436.46 372.334 438 382C438.107 395.56 425.738 405.918 417 415C416.428 415.599 415.857 416.198 415.267 416.815C406.749 425.697 398.013 433.833 388 441C386.883 441.802 386.883 441.802 385.745 442.62C364.703 457.554 342.383 468.656 318 477C316.262 477.625 316.262 477.625 314.488 478.262C257.798 497.411 191.545 490.1 138.37 464.355C107.625 448.954 79.2637 426.036 57.9999 399C57.2084 398.025 56.4169 397.051 55.6015 396.047C48.5516 387.196 42.6549 377.792 36.9999 368C36.6042 367.32 36.2084 366.64 35.8007 365.939C6.00784 314.145 -2.42385 247.675 12.8207 189.889C23.4577 151.579 41.9455 117.824 68.7616 88.4609C70.2398 86.8358 71.7012 85.1952 73.1444 83.539C109.841 41.6193 165.385 17.8992 220 12C221.651 11.8047 221.651 11.8047 223.336 11.6054C291.416 4.90465 359.064 30.0305 409 76Z" fill="#0E1629"/>
<path d="M409 76C418.936 85.3079 427.987 94.9899 436 106C436.754 107.021 437.508 108.042 438.285 109.094C464.452 145.645 481.243 190.995 483 236C484.196 236.062 485.392 236.124 486.625 236.187C491.47 236.789 493.614 238.533 497 242C499.547 246.287 499.849 250.125 499 255C495.609 262.737 488.647 269.445 483.312 275.934C480.385 279.506 477.546 283.137 474.75 286.812C471.051 291.661 467.249 296.401 463.359 301.098C461.608 303.253 459.894 305.419 458.203 307.621C457.723 308.244 457.243 308.866 456.748 309.508C455.82 310.715 454.897 311.926 453.981 313.142C450.661 317.451 447.093 321.724 441.945 323.848C437.596 324.361 434.104 323.966 430.191 321.738C425.012 317.63 421.041 312.189 417 307C416.58 306.461 416.159 305.923 415.726 305.368C413.663 302.713 411.62 300.044 409.586 297.367C406.847 293.778 404.02 290.265 401.187 286.75C396.75 281.219 392.347 275.664 388 270.062C387.46 269.377 386.92 268.692 386.364 267.985C378.057 257.209 378.057 257.209 377.937 250.5C379.616 244.971 381.985 240.535 386.625 237C389 236 389 236 392 236C386.131 192.96 366.83 156.698 332 130C301.047 107.31 261.405 97.7625 223.414 102.822C192.612 107.602 165.603 121.607 143 143C141.581 144.305 141.581 144.305 140.133 145.637C114.046 170.171 98.3546 205.959 96.8949 241.561C95.6865 282.18 108.889 320.554 136.707 350.574C137.464 351.375 138.22 352.175 139 353C139.746 353.811 140.493 354.622 141.262 355.457C168.434 383.977 205.515 395.428 243.91 397.129C278.228 397.853 312.243 387.008 338 364C339.309 362.853 339.309 362.853 340.644 361.684C347.32 355.769 353.582 349.911 359 342.812C362.963 337.759 367.349 333.806 374 333C384.43 332.116 391.704 337.104 399.75 343.25C400.55 343.852 401.351 344.454 402.176 345.074C403.888 346.364 405.597 347.657 407.303 348.955C410.112 351.085 412.935 353.194 415.762 355.301C417.654 356.721 419.546 358.141 421.437 359.562C422.331 360.229 423.225 360.895 424.145 361.581C431.751 367.343 436.46 372.334 438 382C438.107 395.56 425.738 405.918 417 415C416.428 415.599 415.857 416.198 415.267 416.815C406.749 425.697 398.013 433.833 388 441C386.883 441.802 386.883 441.802 385.745 442.62C364.703 457.554 342.383 468.656 318 477C316.262 477.625 316.262 477.625 314.488 478.262C257.798 497.411 191.545 490.1 138.37 464.355C107.625 448.954 79.2637 426.036 57.9999 399C57.2084 398.025 56.4169 397.051 55.6015 396.047C48.5516 387.196 42.6549 377.792 36.9999 368C36.6042 367.32 36.2084 366.64 35.8007 365.939C6.00784 314.145 -2.42385 247.675 12.8207 189.889C23.4577 151.579 41.9455 117.824 68.7616 88.4609C70.2398 86.8358 71.7012 85.1952 73.1444 83.539C109.841 41.6193 165.385 17.8992 220 12C221.651 11.8047 221.651 11.8047 223.336 11.6054C291.416 4.90465 359.064 30.0305 409 76ZM196 18C195.019 18.2196 194.038 18.4392 193.027 18.6655C186.281 20.2171 179.63 22.0141 173 24C172.174 24.2455 171.348 24.4911 170.497 24.7441C130.809 36.8502 92.3418 61.5469 66.3124 94.1289C63.9542 97.0567 61.512 99.8985 59.0624 102.75C35.7388 130.817 20.444 165.339 12.6874 200.812C12.54 201.479 12.3925 202.146 12.2406 202.833C9.21345 217.816 8.62267 232.952 8.68742 248.187C8.68924 249.083 8.69106 249.98 8.69294 250.903C8.7404 264.797 9.33253 278.329 11.9999 292C12.1609 292.869 12.3219 293.738 12.4877 294.633C20.4087 336.445 39.0039 374.147 66.9999 406C67.7734 406.886 68.5468 407.771 69.3437 408.684C77.8868 418.325 86.8725 427.035 96.9999 435C97.9744 435.791 98.949 436.583 99.953 437.398C120.263 453.575 143.558 465.483 168 474C168.691 474.246 169.382 474.492 170.095 474.745C227.084 494.81 293.032 488.842 347.062 463C367.483 452.992 386.034 441.175 403 426C403.562 425.499 404.125 424.999 404.704 424.483C411.212 418.663 417.468 412.774 423 406C423.763 405.101 424.526 404.203 425.312 403.277C431.8 395.552 435.667 390.221 435.336 379.895C434.365 371.53 428.292 366.995 422 362C418.465 359.301 414.871 356.688 411.262 354.09C408.151 351.849 405.079 349.563 402.019 347.254C401.176 346.62 400.332 345.987 399.462 345.334C397.811 344.094 396.164 342.848 394.522 341.595C388.059 336.765 382.304 333.884 374 335C363.818 337.151 357.442 346.654 351.137 354.242C329.624 379.972 295.368 395.276 262.488 398.793C223.484 402.032 185.123 393.122 154 369C152.532 367.869 152.532 367.869 151.035 366.715C119.982 342.021 99.8432 304.715 95.194 265.355C91.8281 224.511 103.005 185.64 129.589 154.115C132.941 150.293 136.43 146.618 140 143C140.544 142.434 141.088 141.868 141.648 141.286C166.365 115.902 203.085 100.19 238.372 99.6953C283.461 99.5998 321.312 114.422 353.403 146.36C357.269 150.331 360.687 154.565 364 159C364.6 159.78 364.6 159.78 365.213 160.576C372.074 169.505 377.313 178.777 382 189C382.708 190.491 382.708 190.491 383.43 192.012C389.793 206.181 392.597 221.744 395 237C393.903 237.28 392.806 237.559 391.676 237.848C386.388 239.505 384.011 242.483 381 247C380.049 250.518 380.164 253.459 381 257C383.476 261.093 386.423 264.642 389.533 268.266C391.988 271.168 394.295 274.185 396.625 277.187C400.358 281.941 404.126 286.666 407.91 291.379C409.96 293.95 411.991 296.534 414.017 299.124C415.889 301.513 417.769 303.896 419.649 306.279C420.94 307.924 422.217 309.578 423.492 311.234C424.258 312.209 425.024 313.183 425.812 314.187C426.479 315.047 427.145 315.907 427.832 316.793C430.362 319.369 432.657 320.661 436 322C440.152 321.785 443.49 321.229 447 319C448.743 316.992 450.348 314.999 451.937 312.875C452.913 311.602 453.889 310.33 454.867 309.059C455.377 308.393 455.887 307.728 456.413 307.042C459.069 303.625 461.818 300.285 464.562 296.937C469.281 291.163 473.862 285.309 478.379 279.375C482.013 274.649 485.818 270.056 489.623 265.467C495.794 258.197 495.794 258.197 497.344 248.992C496.745 245.525 495.338 243.578 493 241C489.392 239.131 485.929 237.939 482 237C481.89 236.282 481.781 235.564 481.668 234.824C481.322 232.566 480.971 230.308 480.617 228.051C480.193 225.323 479.808 222.592 479.445 219.855C473.685 178.052 457.688 135.983 431 103C430.357 102.205 430.357 102.205 429.702 101.395C417.667 86.6328 404.361 73.2773 389 62C387.871 61.1524 386.742 60.3047 385.613 59.457C332.291 19.9199 261.153 3.20206 196 18Z" fill="#000006"/>
<path d="M255.867 162.035C270.778 173.745 281.433 188.881 284 208C285.242 228.153 281.615 245.988 268.141 261.699C254.777 276.062 238.391 284.603 218.639 285.469C199.124 285.756 182.177 278.445 168 265C154.633 251.09 148.525 232.922 148.727 213.879C150.06 194.96 158.877 178.844 172.336 165.723C195.57 145.615 230.958 144.354 255.867 162.035ZM173 183C163.595 195.501 160.734 209.719 162 225C164.18 240.026 171.719 252.785 183.703 262.102C197.466 271.343 213.486 274.396 229.754 271.281C244.306 267.02 257.044 258.139 265 245C271.291 231.126 274.093 215.132 269.312 200.25C268.59 198.479 267.823 196.726 267 195C266.649 194.219 266.299 193.438 265.937 192.633C259.326 179.364 247.7 170.082 234 165C228.299 163.317 223.182 162.643 217.25 162.687C216.464 162.693 215.677 162.699 214.867 162.705C197.906 163.055 184.154 170.359 173 183Z" fill="#0E1629"/>
<path d="M298 281C301.219 283.117 303.83 285.696 306.5 288.462C308.218 290.223 309.979 291.934 311.746 293.645C313.04 294.908 314.333 296.172 315.625 297.437C316.254 298.053 316.882 298.668 317.53 299.301C318.401 300.171 318.401 300.171 319.289 301.059C319.812 301.577 320.335 302.096 320.874 302.631C322 304 322 304 322 306C322.602 306.264 323.204 306.528 323.824 306.801C326.12 308.066 327.186 309.158 328.812 311.187C333.158 316.362 337.997 321.021 342.845 325.719C343.48 326.343 344.115 326.967 344.77 327.609C345.343 328.166 345.916 328.722 346.507 329.296C349.122 332.28 349.952 334.474 350.312 338.437C349.972 342.318 349.479 344.025 347 347C343.705 349.247 341.615 349.977 337.625 350.125C329.743 347.679 323.755 339.904 318.027 334.16C317.301 333.434 316.574 332.709 315.825 331.961C314.3 330.437 312.777 328.911 311.255 327.385C308.944 325.069 306.627 322.758 304.311 320.447C302.82 318.956 301.33 317.464 299.84 315.973C299.157 315.292 298.475 314.612 297.772 313.911C282.253 298.317 282.253 298.317 281.625 292.562C282.114 287.917 283.563 285.603 286.625 282.187C290.532 280.234 293.752 279.886 298 281Z" fill="#0E1629"/>
<path d="M177 192C178.937 192.125 178.937 192.125 181 193C182.742 196.032 183.122 197.477 182.32 200.918C181.926 201.997 181.531 203.076 181.125 204.188C177.799 214.946 176.696 227.719 181.816 238.102C183.6 240.962 185.36 242.877 188 245C188.688 245.565 189.377 246.129 190.086 246.711C199.097 253.622 209.603 257.288 221 256C223.904 255.478 226.779 254.912 229.652 254.242C232 254 232 254 235 256C234.812 258.312 234.812 258.312 234 261C226.836 266.422 217.558 265.57 209 265C195.072 262.935 183.323 254.782 174.562 244C168.181 231.748 167.515 218.776 170.812 205.5C170.978 204.83 171.143 204.16 171.313 203.469C172.447 199.235 173.837 195.163 177 192Z" fill="#000005"/>
<path d="M255.867 162.035C270.778 173.745 281.433 188.881 284 208C285.242 228.153 281.615 245.988 268.141 261.699C254.777 276.062 238.391 284.603 218.639 285.469C199.124 285.756 182.177 278.445 168 265C154.633 251.09 148.525 232.922 148.727 213.879C150.06 194.96 158.877 178.844 172.336 165.723C195.57 145.615 230.958 144.354 255.867 162.035ZM166.687 174.188C155.757 187.248 149.867 204.002 151 221C152.955 240.314 160.754 256.443 175.687 269.25C191.282 280.988 208.616 284.965 227.794 282.329C245.662 279.419 259.547 269.716 270.437 255.5C281.365 239.516 284.314 221.811 281 202.938C277.84 190.107 271.534 179.127 262 170C261.411 169.38 260.822 168.76 260.215 168.121C248.677 156.786 232.202 152.121 216.437 151.625C196.644 152.183 180.274 160.122 166.687 174.188Z" fill="#000005"/>
<path d="M215.75 160.688C216.638 160.693 217.526 160.699 218.441 160.705C225.029 160.826 230.857 161.481 237 164C237.958 164.379 238.916 164.758 239.902 165.148C254.175 171.504 264.069 182.725 270.313 196.938C272.368 202.495 273.341 208.126 274 214C274.085 214.726 274.17 215.451 274.258 216.199C275.071 230.427 268.712 244.787 259.625 255.313C249.648 265.821 236.815 273.655 222.047 274.336C212.067 274.506 203.176 274.383 194 270C193.072 269.576 192.144 269.152 191.188 268.715C175.588 260.937 166.62 248.211 161 232C157.827 220.338 158.891 205.822 164 195C164.654 193.588 164.654 193.588 165.32 192.148C173.184 176.551 185.97 167.517 202.223 161.883C206.808 160.811 211.059 160.656 215.75 160.688ZM173 183C163.595 195.501 160.734 209.719 162 225C164.18 240.026 171.719 252.785 183.703 262.102C197.467 271.343 213.486 274.396 229.754 271.281C244.306 267.02 257.044 258.139 265 245C271.291 231.126 274.093 215.132 269.313 200.25C268.59 198.479 267.823 196.726 267 195C266.649 194.219 266.299 193.438 265.938 192.633C259.326 179.364 247.7 170.082 234 165C228.299 163.317 223.182 162.643 217.25 162.688C216.464 162.693 215.677 162.699 214.867 162.705C197.906 163.055 184.154 170.359 173 183Z" fill="#000004"/>
<path d="M285 261C287.375 262.625 287.375 262.625 289 265C289.612 268.598 289.418 270.32 287.5 273.437C284.711 276.297 281.769 278.887 278.707 281.449C276.896 282.907 276.896 282.907 276 285C275.34 285 274.68 285 274 285C273.752 285.598 273.505 286.196 273.25 286.812C271.764 289.413 270.62 290.544 268 292C264.346 292.533 262.695 292.475 259.625 290.375C257.517 287.294 257.581 285.682 258 282C259.723 279.727 259.723 279.727 262.062 277.625C265.144 274.757 268.035 271.906 270.75 268.687C278.4 259.877 278.4 259.877 285 261Z" fill="#0E1629"/>
<path d="M178 194C178.99 194.66 179.98 195.32 181 196C180.795 196.675 180.59 197.351 180.379 198.047C180.109 198.939 179.84 199.831 179.562 200.75C179.296 201.632 179.029 202.513 178.754 203.422C177.083 209.134 176.749 214.24 176.687 220.188C176.658 221.096 176.629 222.004 176.6 222.939C176.513 232.195 179.52 239.318 185.824 246.082C195.694 254.783 206.896 258.53 219.859 258.238C224.078 257.918 227.92 257.107 232 256C232.495 257.98 232.495 257.98 233 260C227.592 262.693 223.328 263.519 217.312 263.438C216.126 263.425 216.126 263.425 214.916 263.412C202.147 263.047 191.54 257.844 182.062 249.375C181.382 248.591 180.701 247.808 180 247C178.979 245.948 178.979 245.948 177.937 244.875C170.299 233.541 170.484 219.506 172.578 206.375C173.736 201.84 175.229 197.827 178 194Z" fill="#0D1528"/>
<path d="M298 281C301.219 283.117 303.83 285.696 306.5 288.462C308.218 290.223 309.979 291.934 311.746 293.645C313.04 294.908 314.333 296.172 315.625 297.437C316.254 298.053 316.882 298.668 317.53 299.301C318.401 300.171 318.401 300.171 319.289 301.059C319.812 301.577 320.335 302.096 320.874 302.631C322 304 322 304 322 306C322.602 306.264 323.204 306.528 323.824 306.801C326.12 308.066 327.186 309.158 328.812 311.187C333.158 316.362 337.997 321.021 342.845 325.719C343.48 326.343 344.115 326.967 344.77 327.609C345.343 328.166 345.916 328.722 346.507 329.296C349.122 332.28 349.952 334.474 350.312 338.437C349.972 342.318 349.479 344.025 347 347C343.705 349.247 341.615 349.977 337.625 350.125C329.743 347.679 323.755 339.904 318.027 334.16C317.301 333.434 316.574 332.709 315.825 331.961C314.3 330.437 312.777 328.911 311.255 327.385C308.944 325.069 306.627 322.758 304.311 320.447C302.82 318.956 301.33 317.464 299.84 315.973C299.157 315.292 298.475 314.612 297.772 313.911C282.253 298.317 282.253 298.317 281.625 292.562C282.114 287.917 283.563 285.603 286.625 282.187C290.532 280.234 293.752 279.886 298 281ZM286 285C283.691 288.232 283.533 291.11 284 295C287.194 300.657 291.666 304.907 296.273 309.434C297.075 310.23 297.876 311.026 298.702 311.846C301.255 314.381 303.814 316.91 306.375 319.437C308.928 321.962 311.479 324.489 314.027 327.018C315.609 328.588 317.194 330.155 318.782 331.72C322.629 335.533 326.311 339.391 329.756 343.575C331.674 345.772 333.267 346.959 336 348C339.499 348.096 342.813 347.918 345.672 345.707C347.747 343.04 348.061 340.7 348.301 337.379C347.831 333.666 346.008 331.929 343.387 329.371C341.24 327.238 339.185 325.045 337.149 322.805C330.116 315.068 322.792 307.638 315.387 300.257C313.339 298.214 311.296 296.166 309.254 294.117C307.948 292.812 306.642 291.507 305.336 290.203C304.728 289.593 304.119 288.983 303.493 288.354C299.297 284.015 299.297 284.015 293.625 282.812C289.463 283.016 289.463 283.016 286 285Z" fill="#00000A"/>
<path d="M285 261C287.375 262.625 287.375 262.625 289 265C289.612 268.598 289.418 270.32 287.5 273.437C284.711 276.297 281.769 278.887 278.707 281.449C276.896 282.907 276.896 282.907 276 285C275.34 285 274.68 285 274 285C273.752 285.598 273.505 286.196 273.25 286.812C271.764 289.413 270.62 290.544 268 292C264.346 292.533 262.695 292.475 259.625 290.375C257.517 287.294 257.581 285.682 258 282C259.723 279.727 259.723 279.727 262.062 277.625C265.144 274.757 268.035 271.906 270.75 268.687C278.4 259.877 278.4 259.877 285 261ZM274.512 266.691C273.723 267.472 272.935 268.252 272.123 269.057C270.917 270.297 270.917 270.297 269.687 271.562C268.453 272.762 268.453 272.762 267.193 273.986C262.282 278.759 262.282 278.759 259.832 284.965C259.668 288.112 259.668 288.112 262 290C265.508 290.439 267.341 290.439 270.318 288.459C271.392 287.394 271.392 287.394 272.488 286.309C273.277 285.528 274.065 284.748 274.877 283.943C275.681 283.116 276.484 282.289 277.312 281.437C278.136 280.638 278.959 279.838 279.807 279.014C284.718 274.241 284.718 274.241 287.168 268.035C287.332 264.888 287.332 264.888 285 263C280.06 262.382 278.005 263.231 274.512 266.691Z" fill="#00000A"/>
</svg>
